<svg width="70" height="58" xmlns="http://www.w3.org/2000/svg" fill="none">

 <g>
  <title>Layer 1</title>
  <path id="svg_1" stroke-linecap="round" stroke-width="3" stroke-opacity="0.7" stroke="#FFC0CB" d="m34.3979,9.50162c-1.4263,-0.16537 -2.66,-2.43029 -3.8128,-3.20549c-4.3063,-2.89584 -9.6004,-5.30917 -14.709,-3.86543c-5.3353,1.5078 -9.57054,4.79231 -12.45027,9.8239c-2.39039,4.1765 -1.48828,8.3296 0.59631,12.3694c3.86895,7.4976 9.63436,13.0047 15.41376,18.818c3.3516,3.3714 7.3102,5.9905 11.1673,8.6737c1.7164,1.194 4.1916,3.8843 6.3968,3.8843"/>
  <path stroke="#FFC0CB" id="svg_2" stroke-linecap="round" stroke-width="3" stroke-opacity="0.7" d="m35.00517,9.2075c1.40543,-0.16537 2.62107,-2.43029 3.75701,-3.20549c4.24328,-2.89584 9.45991,-5.30917 14.49375,-3.86543c5.25723,1.5078 9.43049,4.79231 12.26808,9.8239c2.35541,4.1765 1.4665,8.3296 -0.58758,12.3694c-3.81233,7.4976 -9.49337,13.0047 -15.1882,18.818c-3.30255,3.3714 -7.20323,5.9905 -11.00388,8.6737c-1.69128,1.194 -4.13026,3.8843 -6.30319,3.8843"/>
 </g>
</svg>